<svg width="430" height="401" viewBox="0 0 430 401" fill="none" xmlns="http://www.w3.org/2000/svg">
<rect x="320" y="91.1314" width="110" height="10" fill="#1C4734"/>
<rect x="317" y="64.1314" width="80" height="10" fill="#1C4734"/>
<rect x="317" y="123.131" width="80" height="10" fill="#1C4734"/>
<rect y="91.1314" width="110" height="10" fill="#1C4734"/>
<rect x="106.17" y="95.2628" width="110" height="10" transform="rotate(-60 106.17 95.2628)" fill="#1C4734"/>
<path d="M270.32 0.131393L325.32 95.3942L316.66 100.394L261.66 5.13139L270.32 0.131393Z" fill="#1C4734"/>
<path d="M161 0.131393L215.5 0.131393L270 0.131393V10.1314L161 10.1314V0.131393Z" fill="#1C4734"/>
<rect x="325.151" y="99.2628" width="109.001" height="10" transform="rotate(120 325.151 99.2628)" fill="#1C4734"/>
<path d="M161 194.394L106 99.1314L114.66 94.1314L169.66 189.394L161 194.394Z" fill="#1C4734"/>
<path d="M201.32 194H181.32H161.32V184H201.32V194Z" fill="#1C4734"/>
<path d="M271 194H250.5H230V184H271V194Z" fill="#1C4734"/>
<rect x="32" y="118.131" width="80" height="10" fill="#1C4734"/>
<rect x="32" y="59.1314" width="80" height="10" fill="#1C4734"/>
<path d="M232.48 77.2514V93.0914C230.944 95.0114 228.64 96.9314 225.568 98.8514C222.56 100.771 218.944 102.371 214.72 103.651C210.496 104.867 205.792 105.475 200.608 105.475C193.312 105.475 186.944 104.067 181.504 101.251C176.064 98.3714 171.84 94.3074 168.832 89.0594C165.824 83.8114 164.32 77.6034 164.32 70.4354C164.32 63.2674 165.792 57.0914 168.736 51.9074C171.744 46.7234 176 42.7234 181.504 39.9074C187.072 37.0274 193.632 35.5874 201.184 35.5874C204.704 35.5874 208.128 35.8434 211.456 36.3554C214.784 36.8034 217.856 37.4114 220.672 38.1794C223.488 38.9474 225.824 39.8434 227.68 40.8674L227.872 57.2834H227.008C225.792 52.9314 224.032 49.4754 221.728 46.9154C219.424 44.2914 216.736 42.4354 213.664 41.3474C210.656 40.1954 207.456 39.6194 204.064 39.6194C198.88 39.6194 194.464 40.8994 190.816 43.4594C187.232 45.9554 184.512 49.5394 182.656 54.2114C180.864 58.8834 179.968 64.4834 179.968 71.0114C179.968 77.1554 180.8 82.5314 182.464 87.1394C184.192 91.6834 186.688 95.2034 189.952 97.6994C193.216 100.131 197.184 101.379 201.856 101.443C204.224 101.443 206.496 101.091 208.672 100.387C210.912 99.6194 212.864 98.5314 214.528 97.1234C216.192 95.7154 217.376 93.9874 218.08 91.9394L218.176 77.2514C218.176 74.3714 216.544 72.9314 213.28 72.9314H211.744V71.9714H238.72V72.9314H237.28C233.952 72.9314 232.352 74.3714 232.48 77.2514Z" fill="#1C4734"/>
<path d="M232.824 71.9314V139.131H218.424V71.9314H232.824ZM258.168 135.003L260.472 139.131H232.536V135.003H258.168ZM265.176 119.451L260.76 139.131H241.944L245.4 135.003C248.6 135.003 251.416 134.395 253.848 133.179C256.28 131.899 258.36 130.107 260.088 127.803C261.816 125.435 263.192 122.651 264.216 119.451H265.176ZM218.712 132.123V139.131H211.032V138.171C211.032 138.171 211.224 138.171 211.608 138.171C212.056 138.171 212.28 138.171 212.28 138.171C213.944 138.171 215.352 137.595 216.504 136.443C217.72 135.227 218.36 133.787 218.424 132.123H218.712ZM218.712 78.9394H218.424C218.36 77.2754 217.72 75.8674 216.504 74.7154C215.352 73.4994 213.944 72.8914 212.28 72.8914C212.28 72.8914 212.056 72.8914 211.608 72.8914C211.224 72.8914 211.032 72.8914 211.032 72.8914V71.9314H218.712V78.9394ZM232.536 78.9394V71.9314H240.216V72.8914C240.152 72.8914 239.928 72.8914 239.544 72.8914C239.16 72.8914 238.968 72.8914 238.968 72.8914C237.304 72.8914 235.864 73.4994 234.648 74.7154C233.496 75.8674 232.888 77.2754 232.824 78.9394H232.536Z" fill="#1C4734"/>
<path d="M121.668 299.56V307.48C120.9 308.44 119.748 309.4 118.212 310.36C116.708 311.32 114.9 312.12 112.788 312.76C110.676 313.368 108.324 313.672 105.732 313.672C102.084 313.672 98.9004 312.968 96.1804 311.56C93.4604 310.12 91.3484 308.088 89.8444 305.464C88.3404 302.84 87.5884 299.736 87.5884 296.152C87.5884 292.568 88.3244 289.48 89.7964 286.888C91.3004 284.296 93.4284 282.296 96.1804 280.888C98.9644 279.448 102.244 278.728 106.02 278.728C107.78 278.728 109.492 278.856 111.156 279.112C112.82 279.336 114.356 279.64 115.764 280.024C117.172 280.408 118.34 280.856 119.268 281.368L119.364 289.576H118.932C118.324 287.4 117.444 285.672 116.292 284.392C115.14 283.08 113.796 282.152 112.26 281.608C110.756 281.032 109.156 280.744 107.46 280.744C104.868 280.744 102.66 281.384 100.836 282.664C99.0444 283.912 97.6844 285.704 96.7564 288.04C95.8604 290.376 95.4124 293.176 95.4124 296.44C95.4124 299.512 95.8284 302.2 96.6604 304.504C97.5244 306.776 98.7724 308.536 100.404 309.784C102.036 311 104.02 311.624 106.356 311.656C107.54 311.656 108.676 311.48 109.764 311.128C110.884 310.744 111.86 310.2 112.692 309.496C113.524 308.792 114.116 307.928 114.468 306.904L114.516 299.56C114.516 298.12 113.7 297.4 112.068 297.4H111.3V296.92H124.788V297.4H124.068C122.404 297.4 121.604 298.12 121.668 299.56ZM143.809 278.44L159.505 312.712H150.865L140.881 287.704L143.809 278.44ZM133.489 309.496C133.233 310.136 133.185 310.68 133.345 311.128C133.505 311.576 133.777 311.928 134.161 312.184C134.545 312.408 134.929 312.52 135.313 312.52H135.745V313H125.473V312.52C125.473 312.52 125.553 312.52 125.713 312.52C125.841 312.52 125.905 312.52 125.905 312.52C126.641 312.52 127.393 312.296 128.161 311.848C128.961 311.368 129.617 310.584 130.129 309.496H133.489ZM143.809 278.44L144.001 284.296L132.097 312.856H128.593L141.025 284.728C141.121 284.536 141.281 284.184 141.505 283.672C141.761 283.128 142.017 282.52 142.273 281.848C142.561 281.176 142.817 280.536 143.041 279.928C143.265 279.288 143.377 278.792 143.377 278.44H143.809ZM148.849 301.576V303.592H134.737V301.576H148.849ZM149.569 309.496H157.969C158.513 310.584 159.169 311.368 159.937 311.848C160.705 312.296 161.457 312.52 162.193 312.52C162.193 312.52 162.257 312.52 162.385 312.52C162.513 312.52 162.577 312.52 162.577 312.52V313H147.313V312.52H147.745C148.385 312.52 148.945 312.264 149.425 311.752C149.905 311.208 149.953 310.456 149.569 309.496ZM170.727 279.4H179.031C181.367 279.4 183.447 279.688 185.271 280.264C187.127 280.808 188.583 281.688 189.639 282.904C190.695 284.088 191.223 285.656 191.223 287.608C191.223 289.08 190.935 290.328 190.359 291.352C189.815 292.376 189.095 293.16 188.199 293.704C187.303 294.248 186.359 294.584 185.367 294.712C186.967 294.84 188.407 295.288 189.687 296.056C190.999 296.824 192.023 297.848 192.759 299.128C193.495 300.408 193.863 301.912 193.863 303.64C193.863 305.688 193.303 307.416 192.183 308.824C191.063 310.2 189.479 311.24 187.431 311.944C185.415 312.648 183.063 313 180.375 313H175.623C175.623 313 175.623 312.824 175.623 312.472C175.655 312.088 175.671 311.72 175.671 311.368C175.671 311.016 175.671 310.84 175.671 310.84H178.263C179.703 310.84 180.967 310.568 182.055 310.024C183.175 309.48 184.039 308.632 184.647 307.48C185.287 306.328 185.607 304.856 185.607 303.064C185.607 301.656 185.383 300.456 184.935 299.464C184.519 298.472 183.943 297.672 183.207 297.064C182.503 296.424 181.671 295.96 180.711 295.672C179.751 295.384 178.743 295.24 177.687 295.24V294.808C178.423 294.808 179.143 294.696 179.847 294.472C180.551 294.216 181.175 293.832 181.719 293.32C182.295 292.808 182.743 292.136 183.063 291.304C183.383 290.44 183.543 289.416 183.543 288.232C183.543 286.6 183.287 285.288 182.775 284.296C182.295 283.304 181.591 282.584 180.663 282.136C179.735 281.688 178.663 281.464 177.447 281.464H171.207C171.207 281.432 171.159 281.256 171.063 280.936C170.999 280.584 170.919 280.248 170.823 279.928C170.759 279.576 170.727 279.4 170.727 279.4ZM176.055 279.4V313H168.855V279.4H176.055ZM168.999 309.496V313H165.159V312.52C165.223 312.52 165.335 312.52 165.495 312.52C165.655 312.52 165.751 312.52 165.783 312.52C166.615 312.52 167.319 312.232 167.895 311.656C168.503 311.048 168.823 310.328 168.855 309.496H168.999ZM168.999 282.904H168.855C168.823 282.072 168.503 281.368 167.895 280.792C167.319 280.184 166.615 279.88 165.783 279.88C165.751 279.88 165.655 279.88 165.495 279.88C165.335 279.88 165.223 279.88 165.159 279.88V279.4H168.999V282.904ZM209.652 279.4H215.844C217.284 279.4 218.692 279.56 220.068 279.88C221.444 280.2 222.66 280.712 223.716 281.416C224.804 282.12 225.668 283.048 226.308 284.2C226.948 285.352 227.268 286.776 227.268 288.472C227.268 289.816 226.98 291.16 226.404 292.504C225.86 293.816 225.012 294.952 223.86 295.912C222.708 296.84 221.22 297.4 219.396 297.592C220.42 297.912 221.348 298.488 222.18 299.32C223.044 300.152 223.748 300.984 224.292 301.816C224.324 301.88 224.5 302.168 224.82 302.68C225.172 303.192 225.588 303.832 226.068 304.6C226.58 305.336 227.108 306.088 227.652 306.856C228.196 307.624 228.692 308.296 229.14 308.872C229.844 309.736 230.484 310.44 231.06 310.984C231.636 311.496 232.244 311.88 232.884 312.136C233.524 312.36 234.26 312.488 235.092 312.52V313H230.388C228.66 313 227.092 312.856 225.684 312.568C224.276 312.248 223.028 311.72 221.94 310.984C220.852 310.248 219.908 309.256 219.108 308.008C218.852 307.624 218.564 307.144 218.244 306.568C217.956 305.96 217.652 305.32 217.332 304.648C217.012 303.976 216.692 303.336 216.372 302.728C216.084 302.088 215.828 301.512 215.604 301C215.38 300.488 215.22 300.088 215.124 299.8C214.708 298.776 214.212 298.008 213.636 297.496C213.092 296.984 212.5 296.68 211.86 296.584V296.104C211.956 296.104 212.148 296.104 212.436 296.104C212.724 296.104 213.028 296.104 213.348 296.104C214.212 296.104 215.044 295.928 215.844 295.576C216.676 295.224 217.412 294.648 218.052 293.848C218.692 293.048 219.14 291.944 219.396 290.536C219.46 290.248 219.508 289.912 219.54 289.528C219.604 289.144 219.62 288.712 219.588 288.232C219.492 285.928 218.916 284.248 217.86 283.192C216.804 282.104 215.492 281.544 213.924 281.512C213.476 281.48 212.98 281.48 212.436 281.512C211.924 281.512 211.444 281.512 210.996 281.512C210.58 281.512 210.292 281.512 210.132 281.512C210.132 281.48 210.084 281.304 209.988 280.984C209.924 280.632 209.844 280.28 209.748 279.928C209.684 279.576 209.652 279.4 209.652 279.4ZM210.276 279.4V313H203.076V279.4H210.276ZM203.22 309.496V313H199.38V312.52C199.412 312.52 199.508 312.52 199.668 312.52C199.86 312.52 199.972 312.52 200.004 312.52C200.836 312.52 201.54 312.232 202.116 311.656C202.724 311.048 203.044 310.328 203.076 309.496H203.22ZM203.22 282.904H203.076C203.044 282.072 202.724 281.368 202.116 280.792C201.54 280.184 200.836 279.88 200.004 279.88C199.972 279.88 199.86 279.88 199.668 279.88C199.508 279.88 199.412 279.88 199.38 279.88V279.4H203.22V282.904ZM210.132 309.496H210.276C210.276 310.328 210.58 311.048 211.188 311.656C211.796 312.232 212.516 312.52 213.348 312.52C213.412 312.52 213.524 312.52 213.684 312.52C213.844 312.52 213.924 312.52 213.924 312.52V313H210.132V309.496ZM247.349 279.4V313H240.149V279.4H247.349ZM240.293 309.496V313H236.453V312.52C236.453 312.52 236.549 312.52 236.741 312.52C236.965 312.52 237.077 312.52 237.077 312.52C237.909 312.52 238.613 312.232 239.189 311.656C239.797 311.048 240.117 310.328 240.149 309.496H240.293ZM240.293 282.904H240.149C240.117 282.072 239.797 281.368 239.189 280.792C238.613 280.184 237.909 279.88 237.077 279.88C237.077 279.88 236.965 279.88 236.741 279.88C236.549 279.88 236.453 279.88 236.453 279.88V279.4H240.293V282.904ZM247.205 309.496H247.349C247.381 310.328 247.685 311.048 248.261 311.656C248.869 312.232 249.589 312.52 250.421 312.52C250.421 312.52 250.517 312.52 250.709 312.52C250.901 312.52 251.013 312.52 251.045 312.52V313H247.205V309.496ZM247.205 282.904V279.4H251.045V279.88C251.013 279.88 250.901 279.88 250.709 279.88C250.517 279.88 250.421 279.88 250.421 279.88C249.589 279.88 248.869 280.184 248.261 280.792C247.685 281.368 247.381 282.072 247.349 282.904H247.205ZM267.831 279.4V313H260.631V279.4H267.831ZM280.503 310.936L281.655 313H267.687V310.936H280.503ZM278.727 295.432V297.448H267.687V295.432H278.727ZM281.079 279.4V281.464H267.687V279.4H281.079ZM284.007 303.16L281.799 313H272.391L274.119 310.936C275.719 310.936 277.127 310.632 278.343 310.024C279.559 309.384 280.599 308.488 281.463 307.336C282.327 306.152 283.015 304.76 283.527 303.16H284.007ZM278.727 297.352V301.96H278.247V301.576C278.247 300.392 277.863 299.416 277.095 298.648C276.327 297.88 275.351 297.48 274.167 297.448V297.352H278.727ZM278.727 290.92V295.528H274.167V295.432C275.351 295.4 276.327 295 277.095 294.232C277.863 293.432 278.247 292.44 278.247 291.256V290.92H278.727ZM281.079 281.32V286.936H280.599V286.36C280.599 284.888 280.151 283.704 279.255 282.808C278.391 281.912 277.207 281.448 275.703 281.416V281.32H281.079ZM281.079 278.536V279.928L275.223 279.4C275.927 279.4 276.663 279.352 277.431 279.256C278.231 279.16 278.967 279.048 279.639 278.92C280.311 278.792 280.791 278.664 281.079 278.536ZM260.775 309.496V313H256.935V312.52C256.935 312.52 257.031 312.52 257.223 312.52C257.447 312.52 257.559 312.52 257.559 312.52C258.391 312.52 259.095 312.232 259.671 311.656C260.279 311.048 260.599 310.328 260.631 309.496H260.775ZM260.775 282.904H260.631C260.599 282.072 260.279 281.368 259.671 280.792C259.095 280.184 258.391 279.88 257.559 279.88C257.559 279.88 257.447 279.88 257.223 279.88C257.031 279.88 256.935 279.88 256.935 279.88V279.4H260.775V282.904ZM299.892 279.4V313H292.692V279.4H299.892ZM312.564 310.936L313.716 313H299.748V310.936H312.564ZM316.068 303.16L313.86 313H304.452L306.18 310.936C307.78 310.936 309.188 310.632 310.404 310.024C311.62 309.384 312.66 308.488 313.524 307.336C314.388 306.152 315.076 304.76 315.588 303.16H316.068ZM292.836 309.496V313H288.996V312.52C288.996 312.52 289.092 312.52 289.284 312.52C289.508 312.52 289.62 312.52 289.62 312.52C290.452 312.52 291.156 312.232 291.732 311.656C292.34 311.048 292.66 310.328 292.692 309.496H292.836ZM292.836 282.904H292.692C292.66 282.072 292.34 281.368 291.732 280.792C291.156 280.184 290.452 279.88 289.62 279.88C289.62 279.88 289.508 279.88 289.284 279.88C289.092 279.88 288.996 279.88 288.996 279.88V279.4H292.836V282.904ZM299.748 282.904V279.4H303.588V279.88C303.556 279.88 303.444 279.88 303.252 279.88C303.06 279.88 302.964 279.88 302.964 279.88C302.132 279.88 301.412 280.184 300.804 280.792C300.228 281.368 299.924 282.072 299.892 282.904H299.748ZM331.155 279.4V313H323.955V279.4H331.155ZM343.827 310.936L344.979 313H331.011V310.936H343.827ZM342.051 295.432V297.448H331.011V295.432H342.051ZM344.403 279.4V281.464H331.011V279.4H344.403ZM347.331 303.16L345.123 313H335.715L337.443 310.936C339.043 310.936 340.451 310.632 341.667 310.024C342.883 309.384 343.923 308.488 344.787 307.336C345.651 306.152 346.339 304.76 346.851 303.16H347.331ZM342.051 297.352V301.96H341.571V301.576C341.571 300.392 341.187 299.416 340.419 298.648C339.651 297.88 338.675 297.48 337.491 297.448V297.352H342.051ZM342.051 290.92V295.528H337.491V295.432C338.675 295.4 339.651 295 340.419 294.232C341.187 293.432 341.571 292.44 341.571 291.256V290.92H342.051ZM344.403 281.32V286.936H343.923V286.36C343.923 284.888 343.475 283.704 342.579 282.808C341.715 281.912 340.531 281.448 339.027 281.416V281.32H344.403ZM344.403 278.536V279.928L338.547 279.4C339.251 279.4 339.987 279.352 340.755 279.256C341.555 279.16 342.291 279.048 342.963 278.92C343.635 278.792 344.115 278.664 344.403 278.536ZM324.099 309.496V313H320.259V312.52C320.259 312.52 320.355 312.52 320.547 312.52C320.771 312.52 320.883 312.52 320.883 312.52C321.715 312.52 322.419 312.232 322.995 311.656C323.603 311.048 323.923 310.328 323.955 309.496H324.099ZM324.099 282.904H323.955C323.923 282.072 323.603 281.368 322.995 280.792C322.419 280.184 321.715 279.88 320.883 279.88C320.883 279.88 320.771 279.88 320.547 279.88C320.355 279.88 320.259 279.88 320.259 279.88V279.4H324.099V282.904Z" fill="#1C4734"/>
<path d="M52.9682 326.4V360H45.7682V326.4H52.9682ZM65.6402 357.936L66.7922 360H52.8242V357.936H65.6402ZM69.1442 350.16L66.9362 360H57.5282L59.2562 357.936C60.8562 357.936 62.2642 357.632 63.4802 357.024C64.6962 356.384 65.7362 355.488 66.6002 354.336C67.4642 353.152 68.1522 351.76 68.6642 350.16H69.1442ZM45.9122 356.496V360H42.0722V359.52C42.0722 359.52 42.1682 359.52 42.3602 359.52C42.5842 359.52 42.6962 359.52 42.6962 359.52C43.5282 359.52 44.2322 359.232 44.8082 358.656C45.4162 358.048 45.7362 357.328 45.7682 356.496H45.9122ZM45.9122 329.904H45.7682C45.7362 329.072 45.4162 328.368 44.8082 327.792C44.2322 327.184 43.5282 326.88 42.6962 326.88C42.6962 326.88 42.5842 326.88 42.3602 326.88C42.1682 326.88 42.0722 326.88 42.0722 326.88V326.4H45.9122V329.904ZM52.8242 329.904V326.4H56.6642V326.88C56.6322 326.88 56.5202 326.88 56.3282 326.88C56.1362 326.88 56.0402 326.88 56.0402 326.88C55.2082 326.88 54.4882 327.184 53.8802 327.792C53.3042 328.368 53.0002 329.072 52.9682 329.904H52.8242ZM88.5932 325.44L104.289 359.712H95.6492L85.6652 334.704L88.5932 325.44ZM78.2732 356.496C78.0172 357.136 77.9692 357.68 78.1292 358.128C78.2892 358.576 78.5612 358.928 78.9452 359.184C79.3292 359.408 79.7132 359.52 80.0972 359.52H80.5292V360H70.2572V359.52C70.2572 359.52 70.3372 359.52 70.4972 359.52C70.6252 359.52 70.6892 359.52 70.6892 359.52C71.4252 359.52 72.1772 359.296 72.9452 358.848C73.7452 358.368 74.4012 357.584 74.9132 356.496H78.2732ZM88.5932 325.44L88.7852 331.296L76.8812 359.856H73.3772L85.8092 331.728C85.9052 331.536 86.0652 331.184 86.2892 330.672C86.5452 330.128 86.8012 329.52 87.0572 328.848C87.3452 328.176 87.6012 327.536 87.8252 326.928C88.0492 326.288 88.1612 325.792 88.1612 325.44H88.5932ZM93.6332 348.576V350.592H79.5212V348.576H93.6332ZM94.3532 356.496H102.753C103.297 357.584 103.953 358.368 104.721 358.848C105.489 359.296 106.241 359.52 106.977 359.52C106.977 359.52 107.041 359.52 107.169 359.52C107.297 359.52 107.361 359.52 107.361 359.52V360H92.0972V359.52H92.5292C93.1692 359.52 93.7292 359.264 94.2092 358.752C94.6892 358.208 94.7372 357.456 94.3532 356.496ZM121.223 325.728C121.863 325.728 122.647 325.76 123.575 325.824C124.535 325.888 125.511 325.984 126.503 326.112C127.527 326.208 128.407 326.32 129.143 326.448C129.911 326.544 130.439 326.656 130.727 326.784L130.151 333.264H129.671C129.671 331.6 129.047 330.272 127.799 329.28C126.583 328.256 124.951 327.744 122.903 327.744C121.047 327.744 119.543 328.192 118.391 329.088C117.271 329.984 116.679 331.072 116.615 332.352C116.583 333.312 116.887 334.144 117.527 334.848C118.167 335.552 118.983 336.208 119.975 336.816L129.143 342.768C130.615 343.6 131.719 344.688 132.455 346.032C133.223 347.376 133.559 348.944 133.463 350.736C133.303 353.872 132.103 356.32 129.863 358.08C127.623 359.808 124.583 360.672 120.743 360.672C119.335 360.672 117.959 360.544 116.615 360.288C115.303 360.064 114.135 359.744 113.111 359.328C112.087 358.88 111.271 358.352 110.663 357.744C110.407 357.04 110.295 356.192 110.327 355.2C110.359 354.208 110.503 353.2 110.759 352.176C111.047 351.152 111.399 350.304 111.815 349.632H112.247C112.119 351.264 112.407 352.784 113.111 354.192C113.847 355.568 114.903 356.672 116.279 357.504C117.687 358.304 119.351 358.688 121.271 358.656C123.383 358.624 125.015 358.096 126.167 357.072C127.319 356.016 127.895 354.752 127.895 353.28C127.895 352.288 127.591 351.392 126.983 350.592C126.407 349.792 125.447 349.024 124.103 348.288L115.703 342.72C114.007 341.76 112.775 340.528 112.007 339.024C111.239 337.52 110.935 335.888 111.095 334.128C111.255 332.464 111.751 331.008 112.583 329.76C113.415 328.48 114.551 327.488 115.991 326.784C117.463 326.08 119.207 325.728 121.223 325.728ZM130.775 326.208L130.679 327.216H125.015V326.208H130.775ZM172.253 345.984L172.685 354.24C171.981 355.424 171.037 356.496 169.853 357.456C168.669 358.416 167.197 359.2 165.437 359.808C163.677 360.384 161.597 360.672 159.197 360.672C155.293 360.64 151.869 359.936 148.925 358.56C146.013 357.152 143.757 355.152 142.157 352.56C140.557 349.968 139.757 346.832 139.757 343.152C139.757 339.568 140.541 336.48 142.109 333.888C143.677 331.264 145.917 329.248 148.829 327.84C151.773 326.432 155.277 325.728 159.341 325.728C161.901 325.728 164.189 325.984 166.205 326.496C168.253 327.008 169.965 327.632 171.341 328.368L171.389 336.576H170.957C170.093 333.408 168.685 331.152 166.733 329.808C164.781 328.432 162.493 327.744 159.869 327.744C157.309 327.744 155.117 328.368 153.293 329.616C151.469 330.864 150.061 332.624 149.069 334.896C148.077 337.168 147.581 339.888 147.581 343.056C147.581 346.224 148.045 348.96 148.973 351.264C149.933 353.568 151.277 355.36 153.005 356.64C154.765 357.92 156.829 358.592 159.197 358.656C161.661 358.656 163.741 358.256 165.437 357.456C167.133 356.656 168.493 355.328 169.517 353.472C170.573 351.616 171.357 349.12 171.869 345.984H172.253ZM189.742 326.4V360H182.542V326.4H189.742ZM182.686 356.496V360H178.846V359.52C178.846 359.52 178.942 359.52 179.134 359.52C179.358 359.52 179.47 359.52 179.47 359.52C180.302 359.52 181.006 359.232 181.582 358.656C182.19 358.048 182.51 357.328 182.542 356.496H182.686ZM182.686 329.904H182.542C182.51 329.072 182.19 328.368 181.582 327.792C181.006 327.184 180.302 326.88 179.47 326.88C179.47 326.88 179.358 326.88 179.134 326.88C178.942 326.88 178.846 326.88 178.846 326.88V326.4H182.686V329.904ZM189.598 356.496H189.742C189.774 357.328 190.078 358.048 190.654 358.656C191.262 359.232 191.982 359.52 192.814 359.52C192.814 359.52 192.91 359.52 193.102 359.52C193.294 359.52 193.406 359.52 193.438 359.52V360H189.598V356.496ZM189.598 329.904V326.4H193.438V326.88C193.406 326.88 193.294 326.88 193.102 326.88C192.91 326.88 192.814 326.88 192.814 326.88C191.982 326.88 191.262 327.184 190.654 327.792C190.078 328.368 189.774 329.072 189.742 329.904H189.598ZM214.023 325.44L229.719 359.712H221.079L211.095 334.704L214.023 325.44ZM203.703 356.496C203.447 357.136 203.399 357.68 203.559 358.128C203.719 358.576 203.991 358.928 204.375 359.184C204.759 359.408 205.143 359.52 205.527 359.52H205.959V360H195.687V359.52C195.687 359.52 195.767 359.52 195.927 359.52C196.055 359.52 196.119 359.52 196.119 359.52C196.855 359.52 197.607 359.296 198.375 358.848C199.175 358.368 199.831 357.584 200.343 356.496H203.703ZM214.023 325.44L214.215 331.296L202.311 359.856H198.807L211.239 331.728C211.335 331.536 211.495 331.184 211.719 330.672C211.975 330.128 212.231 329.52 212.487 328.848C212.775 328.176 213.031 327.536 213.255 326.928C213.479 326.288 213.591 325.792 213.591 325.44H214.023ZM219.063 348.576V350.592H204.951V348.576H219.063ZM219.783 356.496H228.183C228.727 357.584 229.383 358.368 230.151 358.848C230.919 359.296 231.671 359.52 232.407 359.52C232.407 359.52 232.471 359.52 232.599 359.52C232.727 359.52 232.791 359.52 232.791 359.52V360H217.527V359.52H217.959C218.599 359.52 219.159 359.264 219.639 358.752C220.119 358.208 220.167 357.456 219.783 356.496ZM246.269 326.4V360H239.069V326.4H246.269ZM258.942 357.936L260.094 360H246.125V357.936H258.942ZM262.445 350.16L260.237 360H250.829L252.557 357.936C254.157 357.936 255.565 357.632 256.781 357.024C257.997 356.384 259.037 355.488 259.901 354.336C260.766 353.152 261.453 351.76 261.965 350.16H262.445ZM239.213 356.496V360H235.373V359.52C235.373 359.52 235.469 359.52 235.661 359.52C235.885 359.52 235.997 359.52 235.997 359.52C236.829 359.52 237.533 359.232 238.109 358.656C238.717 358.048 239.037 357.328 239.069 356.496H239.213ZM239.213 329.904H239.069C239.037 329.072 238.717 328.368 238.109 327.792C237.533 327.184 236.829 326.88 235.997 326.88C235.997 326.88 235.885 326.88 235.661 326.88C235.469 326.88 235.373 326.88 235.373 326.88V326.4H239.213V329.904ZM246.125 329.904V326.4H249.965V326.88C249.933 326.88 249.821 326.88 249.629 326.88C249.437 326.88 249.341 326.88 249.341 326.88C248.509 326.88 247.789 327.184 247.181 327.792C246.605 328.368 246.301 329.072 246.269 329.904H246.125ZM277.533 326.4V360H270.333V326.4H277.533ZM288.429 342.432V344.448H277.389V342.432H288.429ZM290.781 326.4V328.464H277.389V326.4H290.781ZM288.429 344.352V348.96H287.949V348.576C287.949 347.392 287.565 346.416 286.797 345.648C286.029 344.88 285.053 344.48 283.869 344.448V344.352H288.429ZM288.429 337.92V342.528H283.869V342.432C285.053 342.4 286.029 342 286.797 341.232C287.565 340.432 287.949 339.44 287.949 338.256V337.92H288.429ZM290.781 328.32V333.648H290.301V333.168C290.301 331.728 289.869 330.592 289.005 329.76C288.173 328.896 287.037 328.464 285.597 328.464V328.32H290.781ZM290.781 325.536V326.928L284.925 326.4C285.629 326.4 286.365 326.352 287.133 326.256C287.933 326.16 288.669 326.048 289.341 325.92C290.013 325.792 290.493 325.664 290.781 325.536ZM270.477 356.496V360H266.637V359.52C266.637 359.52 266.733 359.52 266.925 359.52C267.149 359.52 267.261 359.52 267.261 359.52C268.093 359.52 268.797 359.232 269.373 358.656C269.981 358.048 270.301 357.328 270.333 356.496H270.477ZM270.477 329.904H270.333C270.301 329.072 269.981 328.368 269.373 327.792C268.797 327.184 268.093 326.88 267.261 326.88C267.261 326.88 267.149 326.88 266.925 326.88C266.733 326.88 266.637 326.88 266.637 326.88V326.4H270.477V329.904ZM277.389 356.496H277.533C277.565 357.328 277.869 358.048 278.445 358.656C279.053 359.232 279.773 359.52 280.605 359.52C280.605 359.52 280.701 359.52 280.893 359.52C281.085 359.52 281.197 359.52 281.229 359.52V360H277.389V356.496ZM309.83 325.44L325.526 359.712H316.886L306.902 334.704L309.83 325.44ZM299.51 356.496C299.254 357.136 299.206 357.68 299.366 358.128C299.526 358.576 299.798 358.928 300.182 359.184C300.566 359.408 300.95 359.52 301.334 359.52H301.766V360H291.494V359.52C291.494 359.52 291.574 359.52 291.734 359.52C291.862 359.52 291.926 359.52 291.926 359.52C292.662 359.52 293.414 359.296 294.182 358.848C294.982 358.368 295.638 357.584 296.15 356.496H299.51ZM309.83 325.44L310.022 331.296L298.118 359.856H294.614L307.046 331.728C307.142 331.536 307.302 331.184 307.526 330.672C307.782 330.128 308.038 329.52 308.294 328.848C308.582 328.176 308.838 327.536 309.062 326.928C309.286 326.288 309.398 325.792 309.398 325.44H309.83ZM314.87 348.576V350.592H300.758V348.576H314.87ZM315.59 356.496H323.99C324.534 357.584 325.19 358.368 325.958 358.848C326.726 359.296 327.478 359.52 328.214 359.52C328.214 359.52 328.278 359.52 328.406 359.52C328.534 359.52 328.598 359.52 328.598 359.52V360H313.334V359.52H313.766C314.406 359.52 314.966 359.264 315.446 358.752C315.926 358.208 315.974 357.456 315.59 356.496ZM341.596 326.4H347.788C349.228 326.4 350.636 326.56 352.012 326.88C353.388 327.2 354.604 327.712 355.66 328.416C356.748 329.12 357.612 330.048 358.252 331.2C358.892 332.352 359.212 333.776 359.212 335.472C359.212 336.816 358.924 338.16 358.348 339.504C357.804 340.816 356.956 341.952 355.804 342.912C354.652 343.84 353.164 344.4 351.34 344.592C352.364 344.912 353.292 345.488 354.124 346.32C354.988 347.152 355.692 347.984 356.236 348.816C356.268 348.88 356.444 349.168 356.764 349.68C357.116 350.192 357.532 350.832 358.012 351.6C358.524 352.336 359.052 353.088 359.596 353.856C360.14 354.624 360.636 355.296 361.084 355.872C361.788 356.736 362.428 357.44 363.004 357.984C363.58 358.496 364.188 358.88 364.828 359.136C365.468 359.36 366.204 359.488 367.036 359.52V360H362.332C360.604 360 359.036 359.856 357.628 359.568C356.22 359.248 354.972 358.72 353.884 357.984C352.796 357.248 351.852 356.256 351.052 355.008C350.796 354.624 350.508 354.144 350.188 353.568C349.9 352.96 349.596 352.32 349.276 351.648C348.956 350.976 348.636 350.336 348.316 349.728C348.028 349.088 347.772 348.512 347.548 348C347.324 347.488 347.164 347.088 347.068 346.8C346.652 345.776 346.156 345.008 345.58 344.496C345.036 343.984 344.444 343.68 343.804 343.584V343.104C343.9 343.104 344.092 343.104 344.38 343.104C344.668 343.104 344.972 343.104 345.292 343.104C346.156 343.104 346.988 342.928 347.788 342.576C348.62 342.224 349.356 341.648 349.996 340.848C350.636 340.048 351.084 338.944 351.34 337.536C351.404 337.248 351.452 336.912 351.484 336.528C351.548 336.144 351.564 335.712 351.532 335.232C351.436 332.928 350.86 331.248 349.804 330.192C348.748 329.104 347.436 328.544 345.868 328.512C345.42 328.48 344.924 328.48 344.38 328.512C343.868 328.512 343.388 328.512 342.94 328.512C342.524 328.512 342.236 328.512 342.076 328.512C342.076 328.48 342.028 328.304 341.932 327.984C341.868 327.632 341.788 327.28 341.692 326.928C341.628 326.576 341.596 326.4 341.596 326.4ZM342.22 326.4V360H335.02V326.4H342.22ZM335.164 356.496V360H331.324V359.52C331.356 359.52 331.452 359.52 331.612 359.52C331.804 359.52 331.916 359.52 331.948 359.52C332.78 359.52 333.484 359.232 334.06 358.656C334.668 358.048 334.988 357.328 335.02 356.496H335.164ZM335.164 329.904H335.02C334.988 329.072 334.668 328.368 334.06 327.792C333.484 327.184 332.78 326.88 331.948 326.88C331.916 326.88 331.804 326.88 331.612 326.88C331.452 326.88 331.356 326.88 331.324 326.88V326.4H335.164V329.904ZM342.076 356.496H342.22C342.22 357.328 342.524 358.048 343.132 358.656C343.74 359.232 344.46 359.52 345.292 359.52C345.356 359.52 345.468 359.52 345.628 359.52C345.788 359.52 345.868 359.52 345.868 359.52V360H342.076V356.496ZM379.293 326.4V360H372.093V326.4H379.293ZM372.237 356.496V360H368.397V359.52C368.397 359.52 368.493 359.52 368.685 359.52C368.909 359.52 369.021 359.52 369.021 359.52C369.853 359.52 370.557 359.232 371.133 358.656C371.741 358.048 372.061 357.328 372.093 356.496H372.237ZM372.237 329.904H372.093C372.061 329.072 371.741 328.368 371.133 327.792C370.557 327.184 369.853 326.88 369.021 326.88C369.021 326.88 368.909 326.88 368.685 326.88C368.493 326.88 368.397 326.88 368.397 326.88V326.4H372.237V329.904ZM379.149 356.496H379.293C379.325 357.328 379.629 358.048 380.205 358.656C380.813 359.232 381.533 359.52 382.365 359.52C382.365 359.52 382.461 359.52 382.653 359.52C382.845 359.52 382.957 359.52 382.989 359.52V360H379.149V356.496ZM379.149 329.904V326.4H382.989V326.88C382.957 326.88 382.845 326.88 382.653 326.88C382.461 326.88 382.365 326.88 382.365 326.88C381.533 326.88 380.813 327.184 380.205 327.792C379.629 328.368 379.325 329.072 379.293 329.904H379.149Z" fill="#1C4734"/>
<path d="M139.539 391.04V396.32C139.027 396.96 138.259 397.6 137.235 398.24C136.233 398.88 135.027 399.413 133.619 399.84C132.211 400.245 130.643 400.448 128.915 400.448C126.483 400.448 124.361 399.979 122.547 399.04C120.734 398.08 119.326 396.725 118.323 394.976C117.321 393.227 116.819 391.157 116.819 388.768C116.819 386.379 117.31 384.32 118.291 382.592C119.294 380.864 120.713 379.531 122.547 378.592C124.403 377.632 126.59 377.152 129.107 377.152C130.281 377.152 131.422 377.237 132.531 377.408C133.641 377.557 134.665 377.76 135.603 378.016C136.542 378.272 137.321 378.571 137.939 378.912L138.003 384.384H137.715C137.31 382.933 136.723 381.781 135.955 380.928C135.187 380.053 134.291 379.435 133.267 379.072C132.265 378.688 131.198 378.496 130.067 378.496C128.339 378.496 126.867 378.923 125.651 379.776C124.457 380.608 123.55 381.803 122.931 383.36C122.334 384.917 122.035 386.784 122.035 388.96C122.035 391.008 122.313 392.8 122.867 394.336C123.443 395.851 124.275 397.024 125.363 397.856C126.451 398.667 127.774 399.083 129.331 399.104C130.121 399.104 130.878 398.987 131.603 398.752C132.35 398.496 133.001 398.133 133.555 397.664C134.11 397.195 134.505 396.619 134.739 395.936L134.771 391.04C134.771 390.08 134.227 389.6 133.139 389.6H132.627V389.28H141.619V389.6H141.139C140.03 389.6 139.497 390.08 139.539 391.04ZM151.205 377.6V400H146.405V377.6H151.205ZM159.653 398.624L160.421 400H151.109V398.624H159.653ZM158.469 388.288V389.632H151.109V388.288H158.469ZM160.037 377.6V378.976H151.109V377.6H160.037ZM161.989 393.44L160.517 400H154.245L155.397 398.624C156.464 398.624 157.402 398.421 158.213 398.016C159.024 397.589 159.717 396.992 160.293 396.224C160.869 395.435 161.328 394.507 161.669 393.44H161.989ZM158.469 389.568V392.64H158.149V392.384C158.149 391.595 157.893 390.944 157.381 390.432C156.869 389.92 156.218 389.653 155.429 389.632V389.568H158.469ZM158.469 385.28V388.352H155.429V388.288C156.218 388.267 156.869 388 157.381 387.488C157.893 386.955 158.149 386.293 158.149 385.504V385.28H158.469ZM160.037 378.88V382.624H159.717V382.24C159.717 381.259 159.418 380.469 158.821 379.872C158.245 379.275 157.456 378.965 156.453 378.944V378.88H160.037ZM160.037 377.024V377.952L156.133 377.6C156.602 377.6 157.093 377.568 157.605 377.504C158.138 377.44 158.629 377.365 159.077 377.28C159.525 377.195 159.845 377.109 160.037 377.024ZM146.501 397.664V400H143.941V399.68C143.941 399.68 144.005 399.68 144.133 399.68C144.282 399.68 144.357 399.68 144.357 399.68C144.912 399.68 145.381 399.488 145.765 399.104C146.17 398.699 146.384 398.219 146.405 397.664H146.501ZM146.501 379.936H146.405C146.384 379.381 146.17 378.912 145.765 378.528C145.381 378.123 144.912 377.92 144.357 377.92C144.357 377.92 144.282 377.92 144.133 377.92C144.005 377.92 143.941 377.92 143.941 377.92V377.6H146.501V379.936ZM177.99 377.152C180.55 377.152 182.768 377.632 184.646 378.592C186.544 379.531 188.006 380.864 189.03 382.592C190.075 384.32 190.598 386.389 190.598 388.8C190.598 391.189 190.075 393.259 189.03 395.008C188.006 396.736 186.544 398.08 184.646 399.04C182.768 399.979 180.55 400.448 177.99 400.448C175.43 400.448 173.2 399.979 171.302 399.04C169.424 398.08 167.974 396.736 166.95 395.008C165.926 393.28 165.414 391.211 165.414 388.8C165.414 386.411 165.926 384.352 166.95 382.624C167.974 380.875 169.424 379.531 171.302 378.592C173.2 377.632 175.43 377.152 177.99 377.152ZM177.99 399.104C179.504 399.104 180.806 398.688 181.894 397.856C182.982 397.003 183.824 395.808 184.422 394.272C185.019 392.736 185.318 390.912 185.318 388.8C185.318 386.688 185.019 384.864 184.422 383.328C183.824 381.792 182.982 380.608 181.894 379.776C180.806 378.923 179.504 378.496 177.99 378.496C176.496 378.496 175.195 378.923 174.086 379.776C172.998 380.608 172.155 381.792 171.558 383.328C170.96 384.864 170.662 386.688 170.662 388.8C170.662 390.912 170.96 392.736 171.558 394.272C172.155 395.808 172.998 397.003 174.086 397.856C175.195 398.688 176.496 399.104 177.99 399.104ZM217.929 377.152L218.185 380.64L208.681 397.12C208.681 397.12 208.575 397.312 208.361 397.696C208.148 398.059 207.935 398.507 207.721 399.04C207.529 399.573 207.433 400.107 207.433 400.64H207.113L205.865 397.856L217.929 377.152ZM196.233 397.664V400H192.681V399.68C192.703 399.68 192.799 399.68 192.969 399.68C193.119 399.68 193.193 399.68 193.193 399.68C193.769 399.68 194.281 399.509 194.729 399.168C195.177 398.805 195.444 398.304 195.529 397.664H196.233ZM197.641 398.176C197.641 398.197 197.641 398.219 197.641 398.24C197.641 398.261 197.641 398.293 197.641 398.336C197.641 398.677 197.759 398.997 197.993 399.296C198.249 399.573 198.548 399.712 198.889 399.712H199.369V400H197.417V398.176H197.641ZM198.185 377.152H198.473L199.593 380.352L197.449 400H195.209L198.185 377.152ZM198.473 377.152L208.937 394.336L207.113 400.64L197.641 384.736L198.473 377.152ZM218.217 377.152L221.257 400H216.105L214.505 385.28L217.929 377.152H218.217ZM220.265 397.664H220.937C221.044 398.304 221.321 398.805 221.769 399.168C222.217 399.509 222.719 399.68 223.273 399.68C223.273 399.68 223.359 399.68 223.529 399.68C223.7 399.68 223.785 399.68 223.785 399.68V400H220.265V397.664ZM215.913 398.176H216.137V400H214.185V399.712H214.665C215.028 399.712 215.327 399.573 215.561 399.296C215.796 398.997 215.913 398.677 215.913 398.336C215.913 398.293 215.913 398.261 215.913 398.24C215.913 398.219 215.913 398.197 215.913 398.176ZM233.357 377.6V400H228.557V377.6H233.357ZM241.805 398.624L242.573 400H233.261V398.624H241.805ZM240.621 388.288V389.632H233.261V388.288H240.621ZM242.189 377.6V378.976H233.261V377.6H242.189ZM244.141 393.44L242.669 400H236.397L237.549 398.624C238.616 398.624 239.555 398.421 240.365 398.016C241.176 397.589 241.869 396.992 242.445 396.224C243.021 395.435 243.48 394.507 243.821 393.44H244.141ZM240.621 389.568V392.64H240.301V392.384C240.301 391.595 240.045 390.944 239.533 390.432C239.021 389.92 238.371 389.653 237.581 389.632V389.568H240.621ZM240.621 385.28V388.352H237.581V388.288C238.371 388.267 239.021 388 239.533 387.488C240.045 386.955 240.301 386.293 240.301 385.504V385.28H240.621ZM242.189 378.88V382.624H241.869V382.24C241.869 381.259 241.571 380.469 240.973 379.872C240.397 379.275 239.608 378.965 238.605 378.944V378.88H242.189ZM242.189 377.024V377.952L238.285 377.6C238.755 377.6 239.245 377.568 239.757 377.504C240.291 377.44 240.781 377.365 241.229 377.28C241.677 377.195 241.997 377.109 242.189 377.024ZM228.653 397.664V400H226.093V399.68C226.093 399.68 226.157 399.68 226.285 399.68C226.435 399.68 226.509 399.68 226.509 399.68C227.064 399.68 227.533 399.488 227.917 399.104C228.323 398.699 228.536 398.219 228.557 397.664H228.653ZM228.653 379.936H228.557C228.536 379.381 228.323 378.912 227.917 378.528C227.533 378.123 227.064 377.92 226.509 377.92C226.509 377.92 226.435 377.92 226.285 377.92C226.157 377.92 226.093 377.92 226.093 377.92V377.6H228.653V379.936ZM259.336 377.696V400H254.536V377.696H259.336ZM267.176 377.568V378.912H246.696V377.568H267.176ZM267.176 378.816V382.592L266.856 382.56V382.208C266.856 381.205 266.557 380.416 265.96 379.84C265.384 379.243 264.595 378.933 263.592 378.912V378.816H267.176ZM267.176 376.992V377.92L263.272 377.568C263.741 377.568 264.232 377.536 264.744 377.472C265.277 377.408 265.768 377.333 266.216 377.248C266.664 377.163 266.984 377.077 267.176 376.992ZM254.632 397.664V400H252.072V399.68C252.072 399.68 252.136 399.68 252.264 399.68C252.413 399.68 252.488 399.68 252.488 399.68C253.043 399.68 253.512 399.488 253.896 399.104C254.301 398.699 254.515 398.219 254.536 397.664H254.632ZM259.24 397.664H259.336C259.357 398.219 259.56 398.699 259.944 399.104C260.349 399.488 260.829 399.68 261.384 399.68C261.384 399.68 261.448 399.68 261.576 399.68C261.725 399.68 261.8 399.68 261.8 399.68V400H259.24V397.664ZM250.248 378.816V378.912C249.267 378.933 248.477 379.243 247.88 379.84C247.304 380.416 247.016 381.205 247.016 382.208V382.56L246.696 382.592V378.816H250.248ZM246.696 376.992C246.909 377.077 247.229 377.163 247.656 377.248C248.104 377.333 248.595 377.408 249.128 377.472C249.661 377.536 250.152 377.568 250.6 377.568L246.696 377.92V376.992ZM277.16 377.6H281.288C282.248 377.6 283.187 377.707 284.104 377.92C285.021 378.133 285.832 378.475 286.536 378.944C287.261 379.413 287.837 380.032 288.264 380.8C288.691 381.568 288.904 382.517 288.904 383.648C288.904 384.544 288.712 385.44 288.328 386.336C287.965 387.211 287.4 387.968 286.632 388.608C285.864 389.227 284.872 389.6 283.656 389.728C284.339 389.941 284.957 390.325 285.512 390.88C286.088 391.435 286.557 391.989 286.92 392.544C286.941 392.587 287.059 392.779 287.272 393.12C287.507 393.461 287.784 393.888 288.104 394.4C288.445 394.891 288.797 395.392 289.16 395.904C289.523 396.416 289.853 396.864 290.152 397.248C290.621 397.824 291.048 398.293 291.432 398.656C291.816 398.997 292.221 399.253 292.648 399.424C293.075 399.573 293.565 399.659 294.12 399.68V400H290.984C289.832 400 288.787 399.904 287.848 399.712C286.909 399.499 286.077 399.147 285.352 398.656C284.627 398.165 283.997 397.504 283.464 396.672C283.293 396.416 283.101 396.096 282.888 395.712C282.696 395.307 282.493 394.88 282.28 394.432C282.067 393.984 281.853 393.557 281.64 393.152C281.448 392.725 281.277 392.341 281.128 392C280.979 391.659 280.872 391.392 280.808 391.2C280.531 390.517 280.2 390.005 279.816 389.664C279.453 389.323 279.059 389.12 278.632 389.056V388.736C278.696 388.736 278.824 388.736 279.016 388.736C279.208 388.736 279.411 388.736 279.624 388.736C280.2 388.736 280.755 388.619 281.288 388.384C281.843 388.149 282.333 387.765 282.76 387.232C283.187 386.699 283.485 385.963 283.656 385.024C283.699 384.832 283.731 384.608 283.752 384.352C283.795 384.096 283.805 383.808 283.784 383.488C283.72 381.952 283.336 380.832 282.632 380.128C281.928 379.403 281.053 379.029 280.008 379.008C279.709 378.987 279.379 378.987 279.016 379.008C278.675 379.008 278.355 379.008 278.056 379.008C277.779 379.008 277.587 379.008 277.48 379.008C277.48 378.987 277.448 378.869 277.384 378.656C277.341 378.421 277.288 378.187 277.224 377.952C277.181 377.717 277.16 377.6 277.16 377.6ZM277.576 377.6V400H272.776V377.6H277.576ZM272.872 397.664V400H270.312V399.68C270.333 399.68 270.397 399.68 270.504 399.68C270.632 399.68 270.707 399.68 270.728 399.68C271.283 399.68 271.752 399.488 272.136 399.104C272.541 398.699 272.755 398.219 272.776 397.664H272.872ZM272.872 379.936H272.776C272.755 379.381 272.541 378.912 272.136 378.528C271.752 378.123 271.283 377.92 270.728 377.92C270.707 377.92 270.632 377.92 270.504 377.92C270.397 377.92 270.333 377.92 270.312 377.92V377.6H272.872V379.936ZM277.48 397.664H277.576C277.576 398.219 277.779 398.699 278.184 399.104C278.589 399.488 279.069 399.68 279.624 399.68C279.667 399.68 279.741 399.68 279.848 399.68C279.955 399.68 280.008 399.68 280.008 399.68V400H277.48V397.664ZM305.011 376.96L315.475 399.808H309.715L303.059 383.136L305.011 376.96ZM298.131 397.664C297.96 398.091 297.928 398.453 298.035 398.752C298.142 399.051 298.323 399.285 298.579 399.456C298.835 399.605 299.091 399.68 299.347 399.68H299.635V400H292.787V399.68C292.787 399.68 292.84 399.68 292.947 399.68C293.032 399.68 293.075 399.68 293.075 399.68C293.566 399.68 294.067 399.531 294.579 399.232C295.112 398.912 295.55 398.389 295.891 397.664H298.131ZM305.011 376.96L305.139 380.864L297.203 399.904H294.867L303.155 381.152C303.219 381.024 303.326 380.789 303.475 380.448C303.646 380.085 303.816 379.68 303.987 379.232C304.179 378.784 304.35 378.357 304.499 377.952C304.648 377.525 304.723 377.195 304.723 376.96H305.011ZM308.371 392.384V393.728H298.963V392.384H308.371ZM308.851 397.664H314.451C314.814 398.389 315.251 398.912 315.763 399.232C316.275 399.531 316.776 399.68 317.267 399.68C317.267 399.68 317.31 399.68 317.395 399.68C317.48 399.68 317.523 399.68 317.523 399.68V400H307.347V399.68H307.635C308.062 399.68 308.435 399.509 308.755 399.168C309.075 398.805 309.107 398.304 308.851 397.664Z" fill="#1C4734"/>
<path d="M216 199C220.971 199 225 194.523 225 189C225 183.477 220.971 179 216 179C211.029 179 207 183.477 207 189C207 194.523 211.029 199 216 199Z" stroke="#1C4734" stroke-width="4" stroke-linecap="round" stroke-linejoin="round"/>
<path d="M212 199L187 266" stroke="#1C4734" stroke-width="4" stroke-linecap="round" stroke-linejoin="round"/>
<path d="M221 199L247 266" stroke="#1C4734" stroke-width="4" stroke-linecap="round" stroke-linejoin="round"/>
<path d="M190.714 227.826H239.286" stroke="#1C4734" stroke-width="4" stroke-linecap="round" stroke-linejoin="round"/>
<path d="M218.432 227.826C218.432 226.216 217.343 224.911 216 224.911C214.657 224.911 213.568 226.216 213.568 227.826C213.568 229.435 214.657 230.74 216 230.74C217.343 230.74 218.432 229.435 218.432 227.826Z" fill="#1C4734" stroke="#1C4734" stroke-width="4" stroke-linecap="round" stroke-linejoin="round"/>
<path d="M216 167V179" stroke="#1C4734" stroke-width="4" stroke-linecap="round" stroke-linejoin="round"/>
</svg>
